<?xml version="1.0" encoding="iso-8859-1"?>
<!-- Generator: Adobe Illustrator 19.0.0, SVG Export Plug-In . SVG Version: 6.00 Build 0)  -->
<svg version="1.1" id="Layer_1" xmlns="http://www.w3.org/2000/svg" xmlns:xlink="http://www.w3.org/1999/xlink" x="0px" y="0px"
	 viewBox="0 0 512.001 512.001" style="enable-background:new 0 0 512.001 512.001;" xml:space="preserve" fill="#ffffff">
<g>
	<g>
		<path d="M493.026,97.162h-75.914c4.662-6.054,7.68-13.432,8.389-21.465h3.428c12.704,0,23.039-10.33,23.039-23.026V45.15
			c0-12.696-10.335-23.026-23.039-23.026h-3.257V8.074c0-4.46-3.615-8.074-8.074-8.074h-84.216c-4.46,0-8.074,3.616-8.074,8.074
			v63.963c0,9.448,3.199,18.161,8.562,25.125H178.133c5.361-6.966,8.56-15.677,8.56-25.125V8.074c0-4.46-3.616-8.074-8.074-8.074
			H94.418c-4.458,0-8.074,3.616-8.074,8.074v14.049h-3.27c-12.697,0-23.026,10.33-23.026,23.026v7.523
			c0,12.696,10.329,23.026,23.026,23.026h3.437c0.711,8.033,3.73,15.41,8.391,21.465H18.976c-4.458,0-8.074,3.615-8.074,8.074
			v37.842c0,4.46,3.616,8.074,8.074,8.074h36.793v35.112c0,4.458,3.615,8.074,8.074,8.074h162.727v262.379h-52.143
			c-3.689,0-6.908,2.499-7.821,6.072l-10.016,39.134c-0.619,2.417-0.085,4.983,1.444,6.953c1.53,1.97,3.884,3.123,6.379,3.123
			h183.194c2.495,0,4.85-1.153,6.379-3.123c1.53-1.97,2.062-4.538,1.443-6.955l-10.026-39.134c-0.916-3.573-4.134-6.071-7.823-6.071
			h-52.146v-262.38h162.727c4.458,0,8.074-3.616,8.074-8.074v-35.11h36.792c4.46,0,8.074-3.615,8.074-8.074v-37.842
			C501.1,100.777,497.486,97.162,493.026,97.162z M425.671,38.273h3.257c3.799,0,6.89,3.084,6.89,6.877v7.523
			c0,3.791-3.091,6.877-6.89,6.877h-3.257V38.273z M86.343,59.549h-3.27c-3.791,0-6.877-3.084-6.877-6.877V45.15
			c0-3.792,3.084-6.877,6.877-6.877h3.27V59.549z M341.455,16.149h68.068v55.889c0,13.854-11.271,25.125-25.125,25.125H366.58
			c-13.854,0-25.125-11.271-25.125-25.125V16.149z M102.492,16.149h68.054v55.889c0,13.854-11.272,25.125-25.125,25.125h-17.818
			c-13.846,0-25.112-11.271-25.112-25.125V16.149z M331.312,472.866l5.888,22.985H174.811l5.884-22.985H331.312z M242.718,456.717
			V194.338h26.565v262.379H242.718z M440.084,178.189H277.358h-42.714H71.917v-27.036h368.167V178.189z M484.951,135.005
			L484.951,135.005H27.05v-21.693h457.901V135.005z"/>
	</g>
</g>
<g>
</g>
<g>
</g>
<g>
</g>
<g>
</g>
<g>
</g>
<g>
</g>
<g>
</g>
<g>
</g>
<g>
</g>
<g>
</g>
<g>
</g>
<g>
</g>
<g>
</g>
<g>
</g>
<g>
</g>
</svg>
