<?xml version="1.0" encoding="iso-8859-1"?>
<!-- Generator: Adobe Illustrator 19.0.0, SVG Export Plug-In . SVG Version: 6.00 Build 0)  -->
<svg version="1.1" id="Layer_1" xmlns="http://www.w3.org/2000/svg" xmlns:xlink="http://www.w3.org/1999/xlink" x="0px" y="0px"
	 viewBox="0 0 481.029 481.029" style="enable-background:new 0 0 481.029 481.029;" xml:space="preserve" fill="#ffffff">
<g>
	<g>
		<path d="M111.035,119.349l-17.768-9.72l-9.72-17.768c-2.824-5.152-11.24-5.144-14.04,0l-9.712,17.768l-17.768,9.72
			c-2.568,1.4-4.16,4.096-4.16,7.016c0,2.928,1.6,5.616,4.168,7.024l17.768,9.712l9.712,17.768c1.4,2.568,4.096,4.168,7.016,4.168
			s5.616-1.592,7.016-4.168l9.72-17.768l17.76-9.72c2.568-1.4,4.168-4.096,4.168-7.016
			C115.195,123.445,113.603,120.749,111.035,119.349z M83.538,130.189c-1.344,0.728-2.448,1.832-3.184,3.176l-3.824,6.992
			l-3.824-6.992c-0.736-1.344-1.84-2.456-3.184-3.184l-6.984-3.816l6.992-3.832c1.336-0.736,2.448-1.832,3.176-3.176l3.824-6.984
			l3.824,6.984c0.736,1.344,1.84,2.448,3.176,3.176l6.992,3.832L83.538,130.189z"/>
	</g>
</g>
<g>
	<g>
		<path d="M263.035,31.349l-17.768-9.72l-9.712-17.768c-2.824-5.152-11.24-5.144-14.04,0l-9.712,17.768l-17.776,9.72
			c-2.568,1.4-4.16,4.096-4.16,7.016c0,2.928,1.6,5.616,4.168,7.024l17.768,9.712l9.712,17.768c1.4,2.568,4.096,4.168,7.016,4.168
			c2.92,0,5.616-1.592,7.016-4.168l9.72-17.768l17.76-9.72c2.568-1.4,4.168-4.096,4.168-7.016S265.603,32.749,263.035,31.349z
			 M235.538,42.189c-1.344,0.728-2.448,1.832-3.184,3.176l-3.824,6.992l-3.824-6.992c-0.736-1.344-1.84-2.456-3.184-3.184
			l-6.984-3.816l6.992-3.832c1.336-0.736,2.448-1.832,3.176-3.176l3.824-6.984l3.824,6.984c0.736,1.344,1.84,2.448,3.176,3.176
			l6.992,3.832L235.538,42.189z"/>
	</g>
</g>
<g>
	<g>
		<path d="M458.587,393.237l-66.208-181.904l53.912-97.28c2.12-3.816,0.784-8.624-3-10.808l-20.784-12
			c-3.696-2.136-8.008-2.696-12.144-1.6c-4.136,1.112-7.584,3.76-9.72,7.456l-6.928-4c-5.552-3.192-12.024-4.056-18.216-2.4
			c-6.192,1.656-11.368,5.624-14.576,11.176l-36,62.36c-3.208,5.544-4.056,12.016-2.4,18.208c1.088,4.08,3.264,7.648,6.16,10.568
			h-48.168h-80h-38.976c-7.824,0-15.168,3.832-19.664,10.232c-4.488,6.408-5.568,14.624-2.896,21.968
			c3.448,9.464,12.512,15.816,22.56,15.816h30.976v32v32c0,4.424,3.584,8,8,8h80c4.416,0,8-3.576,8-8v-32v-32h65.648l55.328,152
			h-16.976h-32h-216h-32h-32h-56c-13.232,0-24,10.768-24,24c0,10.416,6.712,19.216,16,22.528v17.472c0,13.232,10.768,24,24,24h8
			c13.232,0,24-10.768,24-24v-16h8h32h32h144v8c0,17.648,14.352,32,32,32h128c17.648,0,32-14.352,32-32v-16v-16
			C480.514,404.501,470.842,394.309,458.587,393.237z M192.515,225.029h-30.976c-3.352,0-6.368-2.12-7.52-5.264
			c-0.904-2.488-0.552-5.16,0.968-7.32c1.52-2.176,3.912-3.416,6.552-3.416h30.976V225.029z M272.514,297.029h-64v-16h64V297.029z
			 M272.514,265.029h-64v-24h64V265.029z M272.514,225.029h-64v-16h64V225.029z M56.515,457.029c0,4.416-3.592,8-8,8h-8
			c-4.408,0-8-3.584-8-8v-16h24V457.029z M72.515,425.029h-8h-40c-4.408,0-8-3.584-8-8c0-4.416,3.592-8,8-8h48V425.029z
			 M104.515,425.029h-16v-16h16V425.029z M136.515,425.029h-16v-16h16V425.029z M408.514,112.037c0-0.008,0-0.016,0-0.024
			l4.992-6.904l14.48,8.072l-46.168,83.76c-0.496-0.304-0.904-0.544-1.408-0.816c-0.48-0.264-0.888-0.536-1.384-0.776
			c-4.192-2.072-8.68-3.44-13.36-3.936c-0.32-0.04-1.624-0.072-1.936-0.104L408.514,112.037z M288.514,225.029v-16h50.744l6.912,16
			H288.514z M348.658,187.165l-6.936-4c-1.848-1.072-3.168-2.792-3.72-4.848c-0.552-2.064-0.272-4.216,0.8-6.072l36-62.36
			c1.072-1.848,2.8-3.168,4.856-3.728c0.688-0.176,1.384-0.272,2.08-0.272c1.384,0,2.752,0.368,3.992,1.08l6.928,4l-29.336,50.8
			L348.658,187.165z M359.538,209.029h9.368c1.264,0,2.432,0.376,3.52,0.92c0.472,0.248,0.928,0.56,1.392,0.84
			c1.144,0.904,2.088,2.072,2.608,3.504l65.064,178.736h-14.976L359.538,209.029z M400.514,409.029h16v16h-16V409.029z
			 M368.514,409.029h16v16h-16V409.029z M296.514,425.029h-144v-16h200v16H296.514z M464.514,449.029c0,8.824-7.176,16-16,16h-128
			c-8.824,0-16-7.176-16-16v-8h56h32h32h40V449.029z M464.514,425.029h-32v-16h20.4h3.6c4.408,0,8,3.584,8,8V425.029z"/>
	</g>
</g>
<g>
</g>
<g>
</g>
<g>
</g>
<g>
</g>
<g>
</g>
<g>
</g>
<g>
</g>
<g>
</g>
<g>
</g>
<g>
</g>
<g>
</g>
<g>
</g>
<g>
</g>
<g>
</g>
<g>
</g>
</svg>
