<?xml version="1.0" encoding="iso-8859-1"?>
<!-- Generator: Adobe Illustrator 17.1.0, SVG Export Plug-In . SVG Version: 6.00 Build 0)  -->
<!DOCTYPE svg PUBLIC "-//W3C//DTD SVG 1.1//EN" "http://www.w3.org/Graphics/SVG/1.1/DTD/svg11.dtd">
<svg version="1.1" id="Capa_1" xmlns="http://www.w3.org/2000/svg" xmlns:xlink="http://www.w3.org/1999/xlink" x="0px" y="0px"
	 viewBox="0 0 161.667 161.667" style="enable-background:new 0 0 161.667 161.667;" xml:space="preserve">
<path style="fill:#ffffff;" d="M142.167,161.667H19.5c-5.229,0-9.484-4.255-9.484-9.484V9.483C10.015,4.254,14.27,0,19.5,0h122.668
	c5.229,0,9.484,4.254,9.484,9.483v142.699C151.652,157.412,147.397,161.667,142.167,161.667z M15.015,33.437v118.746
	c0,2.473,2.012,4.484,4.484,4.484h122.668c2.473,0,4.484-2.012,4.484-4.484V33.437H15.015z M15.015,28.437h131.637V9.483
	c0-2.472-2.012-4.483-4.484-4.483H19.5c-2.473,0-4.484,2.012-4.484,4.483V28.437z M80.833,136.176
	c-23.862,0-43.276-19.414-43.276-43.276s19.414-43.276,43.276-43.276s43.276,19.414,43.276,43.276S104.696,136.176,80.833,136.176z
	 M80.833,54.623c-21.105,0-38.276,17.171-38.276,38.276s17.171,38.276,38.276,38.276c19.315,0,35.335-14.381,37.914-32.998h-6.833
	c-2.522,15.114-15.506,26.245-31.081,26.245c-17.383,0-31.524-14.142-31.524-31.523c0-17.383,14.142-31.524,31.524-31.524
	c14.897,0,27.498,10.173,30.733,24.482h6.894C115.146,68.104,99.534,54.623,80.833,54.623z M80.833,66.375
	c-14.626,0-26.524,11.898-26.524,26.524c0,14.625,11.898,26.523,26.524,26.523c12.817,0,23.548-8.957,25.998-21.245H94.713
	c-0.023,0-0.047,0-0.07-0.001H94.46c-1.381,0-2.5-1.119-2.5-2.5v-7.319c0-1.381,1.119-2.5,2.5-2.5h11.955
	C103.309,74.409,92.978,66.375,80.833,66.375z M109.792,93.178h8.78v-2.32H97.213v2.319h12.509
	C109.746,93.177,109.769,93.177,109.792,93.178z M27.451,24.414c-4.081,0-7.401-3.32-7.401-7.401s3.32-7.4,7.401-7.4
	s7.4,3.319,7.4,7.4S31.532,24.414,27.451,24.414z M27.451,14.612c-1.324,0-2.401,1.077-2.401,2.4c0,1.324,1.077,2.401,2.401,2.401
	c1.323,0,2.4-1.077,2.4-2.401C29.851,15.689,28.774,14.612,27.451,14.612z M73.038,23.063h-9.031c-1.381,0-2.5-1.119-2.5-2.5
	s1.119-2.5,2.5-2.5h9.031c1.381,0,2.5,1.119,2.5,2.5S74.418,23.063,73.038,23.063z M53.186,23.063h-9.031
	c-1.381,0-2.5-1.119-2.5-2.5s1.119-2.5,2.5-2.5h9.031c1.381,0,2.5,1.119,2.5,2.5S54.567,23.063,53.186,23.063z M73.038,15.462
	h-9.031c-1.381,0-2.5-1.119-2.5-2.5s1.119-2.5,2.5-2.5h9.031c1.381,0,2.5,1.119,2.5,2.5S74.418,15.462,73.038,15.462z
	 M53.186,15.462h-9.031c-1.381,0-2.5-1.119-2.5-2.5s1.119-2.5,2.5-2.5h9.031c1.381,0,2.5,1.119,2.5,2.5S54.567,15.462,53.186,15.462
	z"/>
<g>
</g>
<g>
</g>
<g>
</g>
<g>
</g>
<g>
</g>
<g>
</g>
<g>
</g>
<g>
</g>
<g>
</g>
<g>
</g>
<g>
</g>
<g>
</g>
<g>
</g>
<g>
</g>
<g>
</g>
</svg>
