<?xml version="1.0" encoding="iso-8859-1"?>
<!-- Generator: Adobe Illustrator 18.0.0, SVG Export Plug-In . SVG Version: 6.00 Build 0)  -->
<!DOCTYPE svg PUBLIC "-//W3C//DTD SVG 1.1//EN" "http://www.w3.org/Graphics/SVG/1.1/DTD/svg11.dtd">
<svg version="1.1" id="Capa_1" xmlns="http://www.w3.org/2000/svg" xmlns:xlink="http://www.w3.org/1999/xlink" x="0px" y="0px"
	 viewBox="0 0 70.243 70.243" style="enable-background:new 0 0 70.243 70.243;" xml:space="preserve">
<path style="fill:#ffffff;" d="M9.43,36.414c0.016-0.548,0.065-2.215,1.317-2.688c1.236-0.465,2.449,0.744,2.679,0.99
	c0.377,0.404,0.356,1.037-0.047,1.414c-0.403,0.377-1.036,0.356-1.414-0.047c-0.127-0.134-0.305-0.276-0.45-0.367
	c-0.037,0.148-0.076,0.387-0.086,0.757c-0.075,2.573,1.916,3.392,2,3.425c0.354,0.14,0.606,0.471,0.638,0.85
	c0.592,7.06,6.152,9.344,8.752,9.344s8.161-2.284,8.753-9.344c0.032-0.385,0.284-0.718,0.646-0.853
	c0.076-0.03,2.067-0.849,1.992-3.422c-0.011-0.37-0.05-0.609-0.086-0.757c-0.146,0.092-0.324,0.234-0.453,0.37
	c-0.38,0.4-1.012,0.418-1.413,0.041s-0.422-1.007-0.046-1.409c0.231-0.247,1.445-1.458,2.679-0.99
	c1.252,0.473,1.301,2.14,1.317,2.688c0.089,3.024-1.729,4.495-2.702,5.063c-0.885,7.315-6.716,10.615-10.688,10.615
	s-9.803-3.299-10.688-10.615C11.159,40.909,9.341,39.438,9.43,36.414z M22.82,56.932c0.31,0,2.834-0.626,2.834-3.154H22.82h-2.834
	C19.985,56.306,22.51,56.932,22.82,56.932z M24.638,57.3c-0.26-0.046-0.53,0.008-0.75,0.157c-0.463,0.317-0.878,0.445-1.068,0.491
	c-0.196-0.047-0.609-0.176-1.071-0.491c-0.219-0.149-0.488-0.204-0.75-0.157c-0.261,0.049-0.491,0.2-0.641,0.419
	c-0.407,0.597-2.364,10.734-2.381,10.833c-0.097,0.544,0.266,1.063,0.81,1.159c0.549,0.099,1.063-0.266,1.159-0.81
	c0.333-1.878,1.382-6.906,1.896-9.163c0.474,0.172,0.809,0.214,0.868,0.221c0.071,0.008,0.145,0.008,0.216,0
	c0.059-0.006,0.394-0.048,0.868-0.221c0.514,2.257,1.563,7.285,1.897,9.163c0.086,0.485,0.507,0.825,0.983,0.825
	c0.058,0,0.117-0.005,0.176-0.016c0.544-0.096,0.906-0.615,0.81-1.159c-0.018-0.099-1.974-10.236-2.382-10.833
	C25.13,57.5,24.899,57.349,24.638,57.3z M10.427,65.574c-0.552,0-1,0.448-1,1v2.152c0,0.552,0.448,1,1,1s1-0.448,1-1v-2.152
	C11.427,66.022,10.979,65.574,10.427,65.574z M14.069,27.929c-0.914,1.101-1.503,2.479-1.706,3.989
	c-0.073,0.547,0.311,1.05,0.858,1.124c0.045,0.006,0.09,0.009,0.134,0.009c0.493,0,0.922-0.365,0.99-0.867
	c0.152-1.136,0.589-2.166,1.263-2.977c0.353-0.425,0.294-1.055-0.131-1.408C15.053,27.446,14.422,27.504,14.069,27.929z
	 M30.72,33.043c0,0.552,0.448,1,1,1s1-0.448,1-1c0-5.747-4.284-7.322-6.563-7.353h-9.123c-0.552,0-1,0.448-1,1s0.448,1,1,1h9.104
	C26.608,27.701,30.72,27.945,30.72,33.043z M34.045,30.813c0.039,0,0.078-0.002,0.118-0.007c0.548-0.064,0.941-0.561,0.877-1.109
	c-0.67-5.728-5.59-7.192-8.113-7.128h-8.603c-0.552,0-1,0.448-1,1s0.448,1,1,1h8.615c0.223,0.009,5.489,0.012,6.115,5.361
	C33.113,30.438,33.545,30.813,34.045,30.813z M68.092,0H2.342c-0.552,0-1,0.448-1,1v52.144c0,0.552,0.448,1,1,1h6.077
	c-3.484,2.593-7.267,7.122-7.267,14.583c0,0.552,0.448,1,1,1s1-0.448,1-1c0-10.078,7.524-14.1,10.426-15.276l0.134,2.457
	c0.018,0.332,0.2,0.633,0.485,0.804c0.158,0.094,0.335,0.142,0.513,0.142c0.145,0,0.29-0.031,0.425-0.095l3.334-1.565
	c0.5-0.235,0.715-0.83,0.48-1.33c-0.235-0.501-0.832-0.714-1.33-0.48l-1.992,0.935l-0.215-3.938
	c-0.03-0.552-0.506-0.969-1.053-0.944c-0.551,0.03-0.974,0.501-0.944,1.053l0.048,0.874c-0.435,0.164-1.055,0.419-1.791,0.784
	c-0.006,0-0.012-0.004-0.018-0.004H3.342V2h63.75v50.144H49.522c3.191-6.788,2.519-14.94,2.482-15.359
	c-0.046-0.516-0.478-0.911-0.996-0.911h-4.917c-0.552,0-1,0.448-1,1c0,5.113-1.365,8.829-4.058,11.044
	c-3.127,2.572-7.286,2.47-8.971,2.3c-0.097-0.424-0.448-0.756-0.904-0.781c-0.548-0.029-1.023,0.392-1.053,0.944l-0.216,3.938
	l-1.83-0.859c-0.5-0.234-1.095-0.021-1.33,0.48c-0.235,0.5-0.02,1.095,0.48,1.33l3.172,1.489c0.135,0.063,0.28,0.095,0.425,0.095
	c0.178,0,0.355-0.047,0.513-0.142c0.285-0.17,0.467-0.472,0.485-0.804l0.202-3.68c2.07,0.198,6.656,0.22,10.283-2.754
	c2.999-2.458,4.606-6.358,4.785-11.6h2.984c0.096,2.892-0.024,11.973-4.876,17.271c-2.447,2.672-5.802,4.026-9.971,4.026
	c-0.552,0-1,0.448-1,1s0.448,1,1,1c4.756,0,8.609-1.575,11.451-4.681c0.668-0.731,1.252-1.52,1.768-2.346h4.91v15.099
	c0,0.552,0.448,1,1,1s1-0.448,1-1V54.144h2.5v15.099c0,0.552,0.448,1,1,1s1-0.448,1-1V54.144h8.25c0.552,0,1-0.448,1-1V1
	C69.092,0.448,68.644,0,68.092,0z M35.213,62.445c-0.552,0-1,0.448-1,1v5.281c0,0.552,0.448,1,1,1s1-0.448,1-1v-5.281
	C36.213,62.893,35.765,62.445,35.213,62.445z M31.104,8.207c0.552,0,1-0.448,1-1s-0.448-1-1-1H13.277c-0.552,0-1,0.448-1,1
	s0.448,1,1,1H31.104z M8.008,11.166c0,0.552,0.448,1,1,1h22.096c0.552,0,1-0.448,1-1s-0.448-1-1-1H9.008
	C8.456,10.166,8.008,10.614,8.008,11.166z M9.008,16.125h22.096c0.552,0,1-0.448,1-1s-0.448-1-1-1H9.008c-0.552,0-1,0.448-1,1
	S8.456,16.125,9.008,16.125z M9.008,20.084h22.096c0.552,0,1-0.448,1-1s-0.448-1-1-1H9.008c-0.552,0-1,0.448-1,1
	S8.456,20.084,9.008,20.084z M64.821,9.014c0.421-0.356,0.474-0.987,0.117-1.409c-0.356-0.421-0.987-0.475-1.409-0.117
	l-10.832,9.165l-5.668-5.946c-0.334-0.42-0.942-0.499-1.375-0.184l-6.798,5.71c-0.445,0.327-0.541,0.953-0.214,1.398
	c0.326,0.444,0.952,0.541,1.398,0.214l6.023-5.141l5.711,6c0.168,0.211,0.416,0.346,0.685,0.373
	c0.033,0.003,0.065,0.005,0.098,0.005c0.235,0,0.465-0.083,0.646-0.237L64.821,9.014z M47.42,19.128l-0.321,7.26
	c0.469-0.052,0.885-0.053,1.159-0.053c1.082,0,4.374,0,4.374,3.221v1.38c0,2.412-1.962,4.374-4.374,4.374s-4.374-1.962-4.374-4.374
	v-1.38c0-1.259,0.505-2.022,1.183-2.489l0.355-8.027c0.025-0.552,0.53-0.969,1.043-0.955C47.016,18.11,47.444,18.577,47.42,19.128z
	 M48.258,28.335c-2.374,0-2.374,0.649-2.374,1.221v1.38c0,1.309,1.065,2.374,2.374,2.374s2.374-1.065,2.374-2.374v-1.38
	C50.632,28.984,50.632,28.335,48.258,28.335z M22.934,36.874v5.064h-1.228c-0.552,0-1,0.448-1,1s0.448,1,1,1h2.228
	c0.552,0,1-0.448,1-1v-6.064c0-0.552-0.448-1-1-1S22.934,36.321,22.934,36.874z"/>
<g>
</g>
<g>
</g>
<g>
</g>
<g>
</g>
<g>
</g>
<g>
</g>
<g>
</g>
<g>
</g>
<g>
</g>
<g>
</g>
<g>
</g>
<g>
</g>
<g>
</g>
<g>
</g>
<g>
</g>
</svg>
