<?xml version="1.0" encoding="iso-8859-1"?>
<!-- Generator: Adobe Illustrator 19.0.0, SVG Export Plug-In . SVG Version: 6.00 Build 0)  -->
<svg version="1.1" id="Layer_1" xmlns="http://www.w3.org/2000/svg" xmlns:xlink="http://www.w3.org/1999/xlink" x="0px" y="0px"
	 viewBox="0 0 512 512" style="enable-background:new 0 0 512 512;" xml:space="preserve">
<g>
	<path style="fill:#ffffff;" d="M471.92,40.011H40.08v399.831h431.839V40.011H471.92z M456.194,424.115H55.806V55.737h400.386
		v368.378H456.194z"/>
	<path style="fill:#ffffff;" d="M0.069,0v479.852h24.007V512h15.726v-32.148h432.67V512h15.726v-32.148h23.732V0H0.069z
		 M496.204,464.126H15.795v-448.4h480.409V464.126z"/>
	<path style="fill:#ffffff;" d="M104.098,239.926c0,48.46,39.425,87.885,87.885,87.885s87.885-39.425,87.885-87.885
		s-39.425-87.885-87.885-87.885S104.098,191.467,104.098,239.926z M264.14,239.926c0,39.788-32.37,72.158-72.158,72.158
		s-72.158-32.37-72.158-72.158s32.37-72.158,72.158-72.158S264.14,200.139,264.14,239.926z"/>
	<path style="fill:#ffffff;" d="M184.12,183.91v16.927c-18.232,3.661-32.009,19.795-32.009,39.089
		c0,21.985,17.887,39.871,39.872,39.871s39.871-17.886,39.871-39.871c0-19.294-13.776-35.428-32.008-39.089V183.91H184.12z
		 M216.128,239.926c0,13.314-10.832,24.145-24.145,24.145c-13.314,0-24.146-10.832-24.146-24.145
		c0-12.444,9.462-22.716,21.568-24.007h5.155C206.666,217.211,216.128,227.484,216.128,239.926z"/>
	<rect x="328.018" y="184.05" style="fill:#ffffff;" width="16.005" height="15.726"/>
	<rect x="360.027" y="184.05" style="fill:#ffffff;" width="16.005" height="15.726"/>
	<rect x="392.035" y="184.05" style="fill:#ffffff;" width="16.005" height="15.726"/>
	<rect x="328.018" y="216.058" style="fill:#ffffff;" width="16.005" height="15.726"/>
	<rect x="360.027" y="216.058" style="fill:#ffffff;" width="16.005" height="15.726"/>
	<rect x="392.035" y="216.058" style="fill:#ffffff;" width="16.005" height="15.726"/>
	<rect x="328.018" y="248.066" style="fill:#ffffff;" width="16.005" height="15.726"/>
	<rect x="360.027" y="248.066" style="fill:#ffffff;" width="16.005" height="15.726"/>
	<rect x="392.035" y="248.066" style="fill:#ffffff;" width="16.005" height="15.726"/>
	<rect x="328.018" y="280.074" style="fill:#ffffff;" width="16.005" height="15.726"/>
	<rect x="360.027" y="280.074" style="fill:#ffffff;" width="16.005" height="15.726"/>
	<rect x="392.035" y="280.074" style="fill:#ffffff;" width="16.005" height="15.726"/>
	<rect x="184.123" y="231.92" style="fill:#ffffff;" width="15.726" height="16.004"/>
	<rect x="71.953" y="384.109" style="fill:#ffffff;" width="368.099" height="15.726"/>
	<rect x="71.953" y="80.026" style="fill:#ffffff;" width="368.099" height="15.726"/>
</g>
<g>
</g>
<g>
</g>
<g>
</g>
<g>
</g>
<g>
</g>
<g>
</g>
<g>
</g>
<g>
</g>
<g>
</g>
<g>
</g>
<g>
</g>
<g>
</g>
<g>
</g>
<g>
</g>
<g>
</g>
</svg>
