<?xml version="1.0" encoding="iso-8859-1"?>
<!-- Generator: Adobe Illustrator 19.0.0, SVG Export Plug-In . SVG Version: 6.00 Build 0)  -->
<svg version="1.1" id="Layer_1" xmlns="http://www.w3.org/2000/svg" xmlns:xlink="http://www.w3.org/1999/xlink" x="0px" y="0px"
	 viewBox="0 0 512 512" style="enable-background:new 0 0 512 512;" xml:space="preserve" fill="#ffffff">
<g>
	<g>
		<path d="M476.767,48.552H35.233C15.802,48.552,0,64.401,0,83.884v247.129c0,19.483,15.802,35.332,35.233,35.332h211.94v52.966
			H132.414c-4.879,0-8.828,3.953-8.828,8.828v26.483c0,4.875,3.948,8.828,8.828,8.828c4.879,0,8.828-3.953,8.828-8.828v-17.655
			h229.517v17.655c0,4.875,3.948,8.828,8.828,8.828c4.879,0,8.828-3.953,8.828-8.828v-26.483c0-4.875-3.948-8.828-8.828-8.828
			H264.828v-52.966h211.94c19.431,0,35.233-15.849,35.233-35.332V83.884C512,64.401,496.198,48.552,476.767,48.552z
			 M494.345,331.013c0,9.746-7.888,17.677-17.578,17.677h-211.94h-17.655H35.233c-9.69,0-17.578-7.931-17.578-17.677V83.884
			c0-9.746,7.888-17.677,17.578-17.677h441.535c9.69,0,17.578,7.931,17.578,17.677V331.013z"/>
	</g>
</g>
<g>
	<g>
		<path d="M103.345,95.276c-3.448-3.448-9.034-3.448-12.483,0l-26.483,26.483c-3.448,3.448-3.448,9.034,0,12.483
			c1.724,1.724,3.983,2.586,6.241,2.586c2.259,0,4.517-0.862,6.241-2.586l26.483-26.483
			C106.793,104.31,106.793,98.724,103.345,95.276z"/>
	</g>
</g>
<g>
	<g>
		<path d="M169.655,104.103c-3.448-3.448-9.034-3.448-12.483,0l-92.793,92.793c-3.448,3.448-3.448,9.035,0,12.483
			c1.724,1.724,3.983,2.586,6.241,2.586c2.259,0,4.517-0.862,6.241-2.586l92.793-92.793
			C173.103,113.138,173.103,107.552,169.655,104.103z"/>
	</g>
</g>
<g>
</g>
<g>
</g>
<g>
</g>
<g>
</g>
<g>
</g>
<g>
</g>
<g>
</g>
<g>
</g>
<g>
</g>
<g>
</g>
<g>
</g>
<g>
</g>
<g>
</g>
<g>
</g>
<g>
</g>
</svg>
